<?xml version="1.0" encoding="utf-8"?>
<!-- Generator: Adobe Illustrator 24.0.1, SVG Export Plug-In . SVG Version: 6.00 Build 0)  -->
<svg version="1.1" id="Layer_1" xmlns="http://www.w3.org/2000/svg" xmlns:xlink="http://www.w3.org/1999/xlink" x="0px" y="0px"
	 viewBox="0 0 500 288" style="enable-background:new 0 0 500 288;" xml:space="preserve">
<style type="text/css">
	.st0{fill:#0000FF;}
	.st1{fill:#FFFF00;}
	.st2{fill:#00FF00;}
	.st3{fill:#FF0000;}
</style>
<g>
	<path class="st0" d="M87.65,31.33c37.27,0,67.58,30.32,67.58,67.58s-30.32,67.58-67.58,67.58s-67.58-30.32-67.58-67.58
		S50.38,31.33,87.65,31.33 M87.65,30.33c-37.88,0-68.58,30.71-68.58,68.58s30.71,68.58,68.58,68.58s68.58-30.71,68.58-68.58
		S125.53,30.33,87.65,30.33L87.65,30.33z"/>
</g>
<g>
	<path class="st1" d="M164.02,100.16c37.27,0,67.58,30.32,67.58,67.58s-30.32,67.58-67.58,67.58s-67.58-30.32-67.58-67.58
		S126.76,100.16,164.02,100.16 M164.02,99.16c-37.88,0-68.58,30.71-68.58,68.58s30.71,68.58,68.58,68.58s68.58-30.71,68.58-68.58
		S201.9,99.16,164.02,99.16L164.02,99.16z"/>
</g>
<g>
	<path d="M249.94,31.33c37.27,0,67.58,30.32,67.58,67.58s-30.32,67.58-67.58,67.58s-67.58-30.32-67.58-67.58
		S212.67,31.33,249.94,31.33 M249.94,30.33c-37.88,0-68.58,30.71-68.58,68.58s30.71,68.58,68.58,68.58s68.58-30.71,68.58-68.58
		S287.82,30.33,249.94,30.33L249.94,30.33z"/>
</g>
<g>
	<path class="st2" d="M327.82,100.16c37.27,0,67.58,30.32,67.58,67.58s-30.32,67.58-67.58,67.58s-67.58-30.32-67.58-67.58
		S290.55,100.16,327.82,100.16 M327.82,99.16c-37.88,0-68.58,30.71-68.58,68.58s30.71,68.58,68.58,68.58s68.58-30.71,68.58-68.58
		S365.69,99.16,327.82,99.16L327.82,99.16z"/>
</g>
<g>
	<path class="st3" d="M414.74,31.33c37.27,0,67.58,30.32,67.58,67.58s-30.32,67.58-67.58,67.58s-67.58-30.32-67.58-67.58
		S377.47,31.33,414.74,31.33 M414.74,30.33c-37.88,0-68.58,30.71-68.58,68.58s30.71,68.58,68.58,68.58s68.58-30.71,68.58-68.58
		S452.62,30.33,414.74,30.33L414.74,30.33z"/>
</g>
</svg>
